<?xml version="1.0" encoding="utf-8"?>
<!-- Generator: Adobe Illustrator 19.2.1, SVG Export Plug-In . SVG Version: 6.00 Build 0)  -->
<svg version="1.1" id="Layer_1" xmlns="http://www.w3.org/2000/svg" xmlns:xlink="http://www.w3.org/1999/xlink" x="0px" y="0px"
	 viewBox="0 0 283.5 283.5" style="enable-background:new 0 0 283.5 283.5;" xml:space="preserve">
<style type="text/css">
	.st0{fill:#FFFFFF;}
	.st1{fill:none;stroke:#000000;stroke-width:34;stroke-linecap:round;stroke-linejoin:round;stroke-miterlimit:10;}
	.st2{fill:none;stroke:#000000;stroke-width:34;stroke-linecap:round;stroke-linejoin:round;}
	.st3{fill:none;stroke:#000000;stroke-width:34;stroke-linecap:round;stroke-linejoin:round;stroke-dasharray:0,53.7733;}
</style>
<g>
	<path class="st0" d="M271.5,25.4c-6-16.2-28-21-41.5-9c-14.6,13.1-29.1,26.3-43.6,39.5c-15.8,14.3-31.4,28.8-47.2,43
		c-11.3,10.1-16.2,22.5-14.5,37.7c2.5,21.5,21.8,39.6,42.6,39.1c10.7,0.1,19.1-2.9,26.7-8.3c8.8-6.2,15.1-14.6,20.6-23.5
		c12.5-20.2,24.7-40.5,36.6-61c6.5-11.1,12.3-22.6,17.9-34.2C272.7,41.4,274.5,33.6,271.5,25.4z"/>
	<path class="st0" d="M151.7,186.7c-14.4-4.8-25.5-13.6-33.1-26.8c-0.9-1.5-1.9-2-3.5-1.8c-6.3,0.6-12.6,0.9-18.8,1.9
		c-9.8,1.6-18.9,4.9-26.5,11.7c-7.5,6.7-12.2,15.2-15.8,24.4c-2.3,5.8-6.8,7.6-12.4,4.8c-3-1.5-6-3.2-8.8-5.1
		c-5.5-3.7-10.9-7.6-16.8-11.8c-0.1,15.5,2.2,29.9,8.3,43.6c6.6,15,16.8,26.7,32,33.5c15.3,6.7,31.2,7.5,47.3,3.9
		c19.7-4.4,34.7-15.3,43.9-33.6c6.7-13.4,7.6-27.7,6.9-42.2C154.3,187.1,152.9,187.1,151.7,186.7z"/>
</g>
<g>
	<path d="M-90.4-270.8h-64.7c-9.4,0-17,7.6-17,17s7.6,17,17,17h47.7v156.4h-246.5v-156.4h47.7c9.4,0,17-7.6,17-17s-7.6-17-17-17
		h-64.7c-9.4,0-17,7.6-17,17v190.4c0,9.4,7.6,17,17,17h280.5c9.4,0,17-7.6,17-17v-190.4C-73.4-263.1-81-270.8-90.4-270.8z"/>
	<path d="M-291.8-165.5l49.2,49.2c3.3,3.3,7.6,5,12,5c0,0,0.1,0,0.1,0c0,0,0.1,0,0.1,0c4.4,0,8.8-1.7,12-5l49.2-49.2
		c6.6-6.6,6.6-17.4,0-24c-6.6-6.6-17.4-6.6-24,0l-20.2,20.2v-164.3c0-9.4-7.6-17-17-17c0,0-0.1,0-0.1,0c0,0-0.1,0-0.1,0
		c-9.4,0-17,7.6-17,17v164.3l-20.2-20.2c-6.6-6.6-17.4-6.6-24,0C-298.5-182.9-298.5-172.1-291.8-165.5z"/>
</g>
<polyline class="st1" points="1011.4,66.2 1076.1,66.2 1076.1,256.6 795.6,256.6 795.6,66.2 860.3,66.2 "/>
<path class="st1" d="M1011.4,66.2"/>
<path class="st1" d="M860.3,66.2"/>
<polyline class="st1" points="935.8,-13.7 935.8,191.7 886.7,142.5 "/>
<polyline class="st1" points="936,-13.7 936,191.7 985.2,142.5 "/>
<g>
	<path class="st0" d="M611.9,337.8l-77.8-77.8c-4.5-4.5-11.7-4.5-16.1,0L386.1,391.8c-4.5,4.5-4.5,11.7,0,16.1l50.8,50.8
		c0,0,0,0,0,0c0,0,0.1,0.1,0.1,0.1c0.3,0.3,0.6,0.5,0.9,0.8c0.2,0.1,0.4,0.3,0.6,0.4c1.4,0.9,2.9,1.6,4.5,1.9
		c0.3,0.1,0.6,0.1,0.9,0.1c0.3,0,0.6,0,0.9,0c0.1,0,0.1,0,0.2,0l54,0.1c0,0,0,0,0,0c3,0,5.9-1.2,8.1-3.3l1.1-1.1
		c2.1,2.7,5.3,4.4,9,4.4c0,0,0,0,0,0c6.3,0,11.4-5.1,11.4-11.4c0-3.7-1.7-6.9-4.4-9l87.9-87.9c2.1-2.1,3.3-5,3.3-8.1
		C615.3,342.8,614,339.9,611.9,337.8z M494.2,439.3l-13.2,0c0,0,0,0,0,0c0,0,0,0,0,0l-31.3,0l-39.4-39.4l53.3-53.3l61.7,61.7
		L494.2,439.3z"/>
	<path class="st0" d="M636.7,449.8c0-0.4-0.1-0.7-0.2-1.1c-0.1-0.4-0.2-0.7-0.3-1.1c-0.1-0.4-0.2-0.7-0.4-1.1
		c-0.1-0.3-0.3-0.7-0.5-1c-0.2-0.3-0.4-0.7-0.6-1c-0.2-0.3-0.4-0.6-0.7-0.9c-0.2-0.3-0.5-0.6-0.8-0.8c-0.3-0.3-0.5-0.5-0.8-0.8
		c-0.3-0.2-0.6-0.5-0.9-0.7c-0.3-0.2-0.6-0.4-1-0.6c-0.3-0.2-0.7-0.3-1-0.5c-0.3-0.1-0.7-0.3-1.1-0.4c-0.4-0.1-0.7-0.2-1.1-0.3
		c-0.4-0.1-0.7-0.1-1.1-0.2c-0.7-0.1-1.5-0.1-2.2,0c-0.4,0-0.7,0.1-1.1,0.2c-0.4,0.1-0.7,0.2-1.1,0.3c-0.4,0.1-0.7,0.2-1,0.4
		c-0.3,0.1-0.7,0.3-1,0.5c-0.3,0.2-0.7,0.4-1,0.6c-0.3,0.2-0.6,0.4-0.9,0.7c-0.3,0.2-0.6,0.5-0.8,0.8c-0.3,0.3-0.5,0.5-0.8,0.8
		c-0.2,0.3-0.5,0.6-0.7,0.9c-0.2,0.3-0.4,0.6-0.6,1c-0.2,0.3-0.3,0.7-0.5,1c-0.1,0.3-0.3,0.7-0.4,1.1c-0.1,0.4-0.2,0.7-0.3,1.1
		c-0.1,0.4-0.1,0.7-0.2,1.1c0,0.4-0.1,0.8-0.1,1.1c0,0.4,0,0.7,0.1,1.1c0,0.4,0.1,0.7,0.2,1.1c0.1,0.4,0.2,0.7,0.3,1.1
		c0.1,0.4,0.2,0.7,0.4,1.1c0.1,0.3,0.3,0.7,0.5,1c0.2,0.3,0.4,0.7,0.6,1c0.2,0.3,0.4,0.6,0.7,0.9c0.2,0.3,0.5,0.6,0.8,0.8
		c0.3,0.3,0.5,0.5,0.8,0.8c0.3,0.2,0.6,0.5,0.9,0.7c0.3,0.2,0.6,0.4,1,0.6c0.3,0.2,0.7,0.3,1,0.5c0.3,0.1,0.7,0.3,1,0.4
		c0.4,0.1,0.7,0.2,1.1,0.3s0.7,0.1,1.1,0.2c0.4,0,0.7,0.1,1.1,0.1c0.4,0,0.8,0,1.1-0.1c0.4,0,0.7-0.1,1.1-0.2s0.7-0.2,1.1-0.3
		c0.4-0.1,0.7-0.2,1.1-0.4c0.3-0.1,0.7-0.3,1-0.5c0.3-0.2,0.7-0.4,1-0.6c0.3-0.2,0.6-0.4,0.9-0.7c0.3-0.2,0.6-0.5,0.8-0.8
		c0.3-0.3,0.5-0.5,0.8-0.8c0.2-0.3,0.5-0.6,0.7-0.9c0.2-0.3,0.4-0.6,0.6-1c0.2-0.3,0.3-0.7,0.5-1c0.1-0.3,0.3-0.7,0.4-1.1
		c0.1-0.4,0.2-0.7,0.3-1.1c0.1-0.4,0.1-0.7,0.2-1.1c0-0.4,0.1-0.8,0.1-1.1C636.7,450.5,636.7,450.2,636.7,449.8z"/>
	<path class="st0" d="M553.2,439.4c-6.3,0-11.4,5.1-11.4,11.4c0,6.3,5.1,11.4,11.4,11.4c0,0,0,0,0,0c6.3,0,11.4-5.1,11.4-11.4
		C564.6,444.5,559.5,439.4,553.2,439.4z"/>
	<path class="st0" d="M589.3,439.4c-6.3,0-11.4,5.1-11.4,11.4c0,6.3,5.1,11.4,11.4,11.4c0,0,0,0,0,0c6.3,0,11.4-5.1,11.4-11.4
		C600.7,444.6,595.6,439.5,589.3,439.4z"/>
</g>
<g>
	<polygon class="st1" points="951.8,-60.1 1108.1,-216.5 992.2,-332.4 795.6,-135.9 871.3,-60.2 	"/>
	<g>
		<g>
			<line class="st2" x1="1140.2" y1="-59.9" x2="1140.2" y2="-59.9"/>
			<line class="st3" x1="1086.4" y1="-59.9" x2="898.2" y2="-60.1"/>
			<line class="st2" x1="871.3" y1="-60.2" x2="871.3" y2="-60.2"/>
		</g>
	</g>
	<rect x="915.6" y="-296.2" transform="matrix(0.7071 0.7071 -0.7071 0.7071 135.2933 -770.4)" width="164" height="148.7"/>
</g>
</svg>
