<?xml version="1.0" encoding="utf-8"?>
<!-- Generator: Adobe Illustrator 19.2.1, SVG Export Plug-In . SVG Version: 6.00 Build 0)  -->
<svg version="1.1" id="Layer_1" xmlns="http://www.w3.org/2000/svg" xmlns:xlink="http://www.w3.org/1999/xlink" x="0px" y="0px"
	 viewBox="0 0 283.5 283.5" style="enable-background:new 0 0 283.5 283.5;" xml:space="preserve">
<style type="text/css">
	.st0{fill:#FFFFFF;}
	.st1{fill:none;stroke:#000000;stroke-width:34;stroke-linecap:round;stroke-linejoin:round;stroke-miterlimit:10;}
	.st2{fill:none;stroke:#000000;stroke-width:34;stroke-linecap:round;stroke-linejoin:round;}
	.st3{fill:none;stroke:#000000;stroke-width:34;stroke-linecap:round;stroke-linejoin:round;stroke-dasharray:0,53.7733;}
</style>
<g>
	<path class="st0" d="M181.9-148.3c13.5,0.1,24.2-3.7,34-10.5c11.1-7.8,19.2-18.5,26.2-29.9c15.8-25.6,31.4-51.5,46.6-77.5
		c8.2-14.1,15.6-28.7,22.8-43.4c4.5-9.3,6.8-19.3,3-29.6c-7.6-20.6-35.6-26.7-52.7-11.4c-18.6,16.6-37,33.5-55.5,50.2
		c-20,18.2-39.9,36.5-60,54.6c-14.4,12.9-20.6,28.7-18.4,47.9C130.9-170.8,155.5-147.7,181.9-148.3z M-10.3-137.9
		c-0.1,19.7,2.9,38,10.5,55.4c8.4,19.1,21.3,34,40.6,42.5c19.4,8.6,39.7,9.5,60.1,5c25-5.6,44.1-19.4,55.8-42.7
		c8.5-17,9.6-35.2,8.8-53.7c-0.1-2.5-1.9-2.5-3.4-3c-18.3-6-32.5-17.3-42.1-34c-1.1-2-2.4-2.5-4.4-2.3c-8,0.8-16,1.2-23.9,2.4
		c-12.4,2-24,6.2-33.6,14.8c-9.5,8.5-15.5,19.3-20.1,31c-2.9,7.3-8.6,9.6-15.7,6.1c-3.8-1.9-7.6-4.1-11.1-6.5
		C4.1-127.6-2.8-132.6-10.3-137.9z"/>
	<path d="M181.9-148.3c-26.4,0.6-51-22.5-54.1-49.7c-2.2-19.2,4-35,18.4-47.9c20.1-18,40-36.4,60-54.6
		c18.5-16.8,36.9-33.6,55.5-50.2c17.1-15.3,45.1-9.2,52.7,11.4c3.8,10.3,1.5,20.3-3,29.6c-7.1,14.7-14.6,29.3-22.8,43.4
		c-15.1,26.1-30.7,51.9-46.6,77.5c-7,11.3-15,22-26.2,29.9C206.1-152,195.4-148.2,181.9-148.3z"/>
	<path d="M-10.3-137.9c7.5,5.3,14.4,10.3,21.4,15c3.6,2.4,7.3,4.6,11.1,6.5c7.1,3.5,12.8,1.3,15.7-6.1c4.6-11.7,10.6-22.5,20.1-31
		c9.6-8.6,21.2-12.8,33.6-14.8c7.9-1.3,15.9-1.6,23.9-2.4c2-0.2,3.3,0.4,4.4,2.3c9.6,16.7,23.8,28,42.1,34c1.6,0.5,3.3,0.5,3.4,3
		c0.8,18.5-0.3,36.7-8.8,53.7c-11.7,23.3-30.8,37.1-55.8,42.7c-20.4,4.5-40.7,3.6-60.1-5C21.5-48.5,8.6-63.4,0.2-82.4
		C-7.4-99.8-10.4-118.2-10.3-137.9z"/>
</g>
<g>
	<path d="M-90.4-270.8h-64.7c-9.4,0-17,7.6-17,17s7.6,17,17,17h47.7v156.4h-246.5v-156.4h47.7c9.4,0,17-7.6,17-17s-7.6-17-17-17
		h-64.7c-9.4,0-17,7.6-17,17v190.4c0,9.4,7.6,17,17,17h280.5c9.4,0,17-7.6,17-17v-190.4C-73.4-263.1-81-270.8-90.4-270.8z"/>
	<path d="M-291.8-165.5l49.2,49.2c3.3,3.3,7.6,5,12,5c0,0,0.1,0,0.1,0c0,0,0.1,0,0.1,0c4.4,0,8.8-1.7,12-5l49.2-49.2
		c6.6-6.6,6.6-17.4,0-24c-6.6-6.6-17.4-6.6-24,0l-20.2,20.2v-164.3c0-9.4-7.6-17-17-17c0,0-0.1,0-0.1,0c0,0-0.1,0-0.1,0
		c-9.4,0-17,7.6-17,17v164.3l-20.2-20.2c-6.6-6.6-17.4-6.6-24,0C-298.5-182.9-298.5-172.1-291.8-165.5z"/>
</g>
<polyline class="st1" points="1011.4,66.2 1076.1,66.2 1076.1,256.6 795.6,256.6 795.6,66.2 860.3,66.2 "/>
<path class="st1" d="M1011.4,66.2"/>
<path class="st1" d="M860.3,66.2"/>
<polyline class="st1" points="935.8,-13.7 935.8,191.7 886.7,142.5 "/>
<polyline class="st1" points="936,-13.7 936,191.7 985.2,142.5 "/>
<g>
	<path class="st0" d="M243.9,120l-77.8-77.8c-4.5-4.5-11.7-4.5-16.1,0L18.1,174.1c-4.5,4.5-4.5,11.7,0,16.1L68.8,241c0,0,0,0,0,0
		c0,0,0.1,0.1,0.1,0.1c0.3,0.3,0.6,0.5,0.9,0.8c0.2,0.1,0.4,0.3,0.6,0.4c1.4,0.9,2.9,1.6,4.5,1.9c0.3,0.1,0.6,0.1,0.9,0.1
		c0.3,0,0.6,0,0.9,0c0.1,0,0.1,0,0.2,0l54,0.1c0,0,0,0,0,0c3,0,5.9-1.2,8.1-3.3l1.1-1.1c2.1,2.7,5.3,4.4,9,4.4c0,0,0,0,0,0
		c6.3,0,11.4-5.1,11.4-11.4c0-3.7-1.7-6.9-4.4-9l87.9-87.9c2.1-2.1,3.3-5,3.3-8.1C247.3,125.1,246,122.2,243.9,120z M126.2,221.6
		l-13.2,0c0,0,0,0,0,0c0,0,0,0,0,0l-31.3,0l-39.4-39.4l53.3-53.3l61.7,61.7L126.2,221.6z"/>
	<path class="st0" d="M268.7,232.1c0-0.4-0.1-0.7-0.2-1.1c-0.1-0.4-0.2-0.7-0.3-1.1c-0.1-0.4-0.2-0.7-0.4-1.1
		c-0.1-0.3-0.3-0.7-0.5-1c-0.2-0.3-0.4-0.7-0.6-1c-0.2-0.3-0.4-0.6-0.7-0.9c-0.2-0.3-0.5-0.6-0.8-0.8c-0.3-0.3-0.5-0.5-0.8-0.8
		c-0.3-0.2-0.6-0.5-0.9-0.7c-0.3-0.2-0.6-0.4-1-0.6c-0.3-0.2-0.7-0.3-1-0.5c-0.3-0.1-0.7-0.3-1.1-0.4c-0.4-0.1-0.7-0.2-1.1-0.3
		c-0.4-0.1-0.7-0.1-1.1-0.2c-0.7-0.1-1.5-0.1-2.2,0c-0.4,0-0.7,0.1-1.1,0.2s-0.7,0.2-1.1,0.3c-0.4,0.1-0.7,0.2-1,0.4
		c-0.3,0.1-0.7,0.3-1,0.5c-0.3,0.2-0.7,0.4-1,0.6c-0.3,0.2-0.6,0.4-0.9,0.7s-0.6,0.5-0.8,0.8c-0.3,0.3-0.5,0.5-0.8,0.8
		c-0.2,0.3-0.5,0.6-0.7,0.9c-0.2,0.3-0.4,0.6-0.6,1c-0.2,0.3-0.3,0.7-0.5,1c-0.1,0.3-0.3,0.7-0.4,1.1c-0.1,0.4-0.2,0.7-0.3,1.1
		c-0.1,0.4-0.1,0.7-0.2,1.1c0,0.4-0.1,0.8-0.1,1.1c0,0.4,0,0.7,0.1,1.1c0,0.4,0.1,0.7,0.2,1.1c0.1,0.4,0.2,0.7,0.3,1.1
		c0.1,0.4,0.2,0.7,0.4,1.1c0.1,0.3,0.3,0.7,0.5,1c0.2,0.3,0.4,0.7,0.6,1c0.2,0.3,0.4,0.6,0.7,0.9c0.2,0.3,0.5,0.6,0.8,0.8
		c0.3,0.3,0.5,0.5,0.8,0.8s0.6,0.5,0.9,0.7c0.3,0.2,0.6,0.4,1,0.6c0.3,0.2,0.7,0.3,1,0.5c0.3,0.1,0.7,0.3,1,0.4
		c0.4,0.1,0.7,0.2,1.1,0.3s0.7,0.1,1.1,0.2c0.4,0,0.7,0.1,1.1,0.1c0.4,0,0.8,0,1.1-0.1c0.4,0,0.7-0.1,1.1-0.2
		c0.4-0.1,0.7-0.2,1.1-0.3c0.4-0.1,0.7-0.2,1.1-0.4c0.3-0.1,0.7-0.3,1-0.5c0.3-0.2,0.7-0.4,1-0.6c0.3-0.2,0.6-0.4,0.9-0.7
		c0.3-0.2,0.6-0.5,0.8-0.8c0.3-0.3,0.5-0.5,0.8-0.8c0.2-0.3,0.5-0.6,0.7-0.9c0.2-0.3,0.4-0.6,0.6-1c0.2-0.3,0.3-0.7,0.5-1
		c0.1-0.3,0.3-0.7,0.4-1.1c0.1-0.4,0.2-0.7,0.3-1.1c0.1-0.4,0.1-0.7,0.2-1.1c0-0.4,0.1-0.8,0.1-1.1
		C268.7,232.8,268.7,232.4,268.7,232.1z"/>
	<path class="st0" d="M185.2,221.7c-6.3,0-11.4,5.1-11.4,11.4c0,6.3,5.1,11.4,11.4,11.4c0,0,0,0,0,0c6.3,0,11.4-5.1,11.4-11.4
		C196.6,226.8,191.5,221.7,185.2,221.7z"/>
	<path class="st0" d="M221.3,221.7c-6.3,0-11.4,5.1-11.4,11.4c0,6.3,5.1,11.4,11.4,11.4c0,0,0,0,0,0c6.3,0,11.4-5.1,11.4-11.4
		C232.7,226.8,227.6,221.7,221.3,221.7z"/>
</g>
<g>
	<polygon class="st1" points="951.8,-60.1 1108.1,-216.5 992.2,-332.4 795.6,-135.9 871.3,-60.2 	"/>
	<g>
		<g>
			<line class="st2" x1="1140.2" y1="-59.9" x2="1140.2" y2="-59.9"/>
			<line class="st3" x1="1086.4" y1="-59.9" x2="898.2" y2="-60.1"/>
			<line class="st2" x1="871.3" y1="-60.2" x2="871.3" y2="-60.2"/>
		</g>
	</g>
	<rect x="915.6" y="-296.2" transform="matrix(0.7071 0.7071 -0.7071 0.7071 135.2933 -770.4)" width="164" height="148.7"/>
</g>
</svg>
