<?xml version="1.0" encoding="utf-8"?>
<!-- Generator: Adobe Illustrator 19.2.1, SVG Export Plug-In . SVG Version: 6.00 Build 0)  -->
<svg version="1.1" id="Layer_1" xmlns="http://www.w3.org/2000/svg" xmlns:xlink="http://www.w3.org/1999/xlink" x="0px" y="0px"
	 viewBox="0 0 283.5 283.5" style="enable-background:new 0 0 283.5 283.5;" xml:space="preserve">
<style type="text/css">
	.st0{fill:#FFFFFF;}
	.st1{fill:none;stroke:#000000;stroke-width:34;stroke-linecap:round;stroke-linejoin:round;stroke-miterlimit:10;}
	.st2{fill:none;stroke:#000000;stroke-width:34;stroke-linecap:round;stroke-linejoin:round;}
	.st3{fill:none;stroke:#000000;stroke-width:34;stroke-linecap:round;stroke-linejoin:round;stroke-dasharray:0,53.7733;}
</style>
<g>
	<path class="st0" d="M668.7-16.2c-6-16.2-28-21-41.5-9c-14.6,13.1-29.1,26.3-43.6,39.5c-15.8,14.3-31.4,28.8-47.2,43
		C525,67.5,520.2,79.8,521.9,95c2.5,21.5,21.8,39.6,42.6,39.1c10.7,0.1,19.1-2.9,26.7-8.3c8.8-6.2,15.1-14.6,20.6-23.5
		c12.5-20.2,24.7-40.5,36.6-61c6.5-11.1,12.3-22.6,17.9-34.2C669.9-0.2,671.7-8,668.7-16.2z"/>
	<path class="st0" d="M548.9,145.1c-14.4-4.8-25.5-13.6-33.1-26.8c-0.9-1.5-1.9-2-3.5-1.8c-6.3,0.6-12.6,0.9-18.8,1.9
		c-9.8,1.6-18.9,4.9-26.5,11.7c-7.5,6.7-12.2,15.2-15.8,24.4c-2.3,5.8-6.8,7.6-12.4,4.8c-3-1.5-6-3.2-8.8-5.1
		c-5.5-3.7-10.9-7.6-16.8-11.8c-0.1,15.5,2.2,29.9,8.3,43.6c6.6,15,16.8,26.7,32,33.5c15.3,6.7,31.2,7.5,47.3,3.9
		c19.7-4.4,34.7-15.3,43.9-33.6c6.7-13.4,7.6-27.7,6.9-42.2C551.5,145.5,550.2,145.5,548.9,145.1z"/>
</g>
<g>
	<path class="st0" d="M245.1,88.5h-47.7c-6.9,0-12.5,5.6-12.5,12.5s5.6,12.5,12.5,12.5h35.2v115.3H50.9V113.6h35.2
		c6.9,0,12.5-5.6,12.5-12.5S93,88.5,86.1,88.5H38.4c-6.9,0-12.5,5.6-12.5,12.5v140.3c0,6.9,5.6,12.5,12.5,12.5h206.7
		c6.9,0,12.5-5.6,12.5-12.5V101C257.6,94.1,252,88.5,245.1,88.5z"/>
	<path class="st0" d="M96.6,166.1l36.2,36.2c2.4,2.4,5.6,3.7,8.9,3.7c0,0,0,0,0.1,0c0,0,0,0,0.1,0c3.3,0,6.5-1.3,8.9-3.7l36.2-36.2
		c4.9-4.9,4.9-12.8,0-17.7c-4.9-4.9-12.8-4.9-17.7,0l-14.9,14.9V42.1c0-6.9-5.6-12.5-12.5-12.5c0,0,0,0-0.1,0c0,0,0,0-0.1,0
		c-6.9,0-12.5,5.6-12.5,12.5v121.1l-14.9-14.9c-4.9-4.9-12.8-4.9-17.7,0C91.7,153.3,91.7,161.2,96.6,166.1z"/>
</g>
<polyline class="st1" points="1011.4,66.2 1076.1,66.2 1076.1,256.6 795.6,256.6 795.6,66.2 860.3,66.2 "/>
<path class="st1" d="M1011.4,66.2"/>
<path class="st1" d="M860.3,66.2"/>
<polyline class="st1" points="935.8,-13.7 935.8,191.7 886.7,142.5 "/>
<polyline class="st1" points="936,-13.7 936,191.7 985.2,142.5 "/>
<g>
	<path class="st0" d="M611.9,337.8l-77.8-77.8c-4.5-4.5-11.7-4.5-16.1,0L386.1,391.8c-4.5,4.5-4.5,11.7,0,16.1l50.8,50.8
		c0,0,0,0,0,0c0,0,0.1,0.1,0.1,0.1c0.3,0.3,0.6,0.5,0.9,0.8c0.2,0.1,0.4,0.3,0.6,0.4c1.4,0.9,2.9,1.6,4.5,1.9
		c0.3,0.1,0.6,0.1,0.9,0.1c0.3,0,0.6,0,0.9,0c0.1,0,0.1,0,0.2,0l54,0.1c0,0,0,0,0,0c3,0,5.9-1.2,8.1-3.3l1.1-1.1
		c2.1,2.7,5.3,4.4,9,4.4c0,0,0,0,0,0c6.3,0,11.4-5.1,11.4-11.4c0-3.7-1.7-6.9-4.4-9l87.9-87.9c2.1-2.1,3.3-5,3.3-8.1
		C615.3,342.8,614,339.9,611.9,337.8z M494.2,439.3l-13.2,0c0,0,0,0,0,0c0,0,0,0,0,0l-31.3,0l-39.4-39.4l53.3-53.3l61.7,61.7
		L494.2,439.3z"/>
	<path class="st0" d="M636.7,449.8c0-0.4-0.1-0.7-0.2-1.1c-0.1-0.4-0.2-0.7-0.3-1.1c-0.1-0.4-0.2-0.7-0.4-1.1
		c-0.1-0.3-0.3-0.7-0.5-1c-0.2-0.3-0.4-0.7-0.6-1c-0.2-0.3-0.4-0.6-0.7-0.9c-0.2-0.3-0.5-0.6-0.8-0.8c-0.3-0.3-0.5-0.5-0.8-0.8
		c-0.3-0.2-0.6-0.5-0.9-0.7c-0.3-0.2-0.6-0.4-1-0.6c-0.3-0.2-0.7-0.3-1-0.5c-0.3-0.1-0.7-0.3-1.1-0.4c-0.4-0.1-0.7-0.2-1.1-0.3
		c-0.4-0.1-0.7-0.1-1.1-0.2c-0.7-0.1-1.5-0.1-2.2,0c-0.4,0-0.7,0.1-1.1,0.2c-0.4,0.1-0.7,0.2-1.1,0.3c-0.4,0.1-0.7,0.2-1,0.4
		c-0.3,0.1-0.7,0.3-1,0.5c-0.3,0.2-0.7,0.4-1,0.6c-0.3,0.2-0.6,0.4-0.9,0.7c-0.3,0.2-0.6,0.5-0.8,0.8c-0.3,0.3-0.5,0.5-0.8,0.8
		c-0.2,0.3-0.5,0.6-0.7,0.9c-0.2,0.3-0.4,0.6-0.6,1c-0.2,0.3-0.3,0.7-0.5,1c-0.1,0.3-0.3,0.7-0.4,1.1c-0.1,0.4-0.2,0.7-0.3,1.1
		c-0.1,0.4-0.1,0.7-0.2,1.1c0,0.4-0.1,0.8-0.1,1.1c0,0.4,0,0.7,0.1,1.1c0,0.4,0.1,0.7,0.2,1.1c0.1,0.4,0.2,0.7,0.3,1.1
		c0.1,0.4,0.2,0.7,0.4,1.1c0.1,0.3,0.3,0.7,0.5,1c0.2,0.3,0.4,0.7,0.6,1c0.2,0.3,0.4,0.6,0.7,0.9c0.2,0.3,0.5,0.6,0.8,0.8
		c0.3,0.3,0.5,0.5,0.8,0.8c0.3,0.2,0.6,0.5,0.9,0.7c0.3,0.2,0.6,0.4,1,0.6c0.3,0.2,0.7,0.3,1,0.5c0.3,0.1,0.7,0.3,1,0.4
		c0.4,0.1,0.7,0.2,1.1,0.3s0.7,0.1,1.1,0.2c0.4,0,0.7,0.1,1.1,0.1c0.4,0,0.8,0,1.1-0.1c0.4,0,0.7-0.1,1.1-0.2s0.7-0.2,1.1-0.3
		c0.4-0.1,0.7-0.2,1.1-0.4c0.3-0.1,0.7-0.3,1-0.5c0.3-0.2,0.7-0.4,1-0.6c0.3-0.2,0.6-0.4,0.9-0.7c0.3-0.2,0.6-0.5,0.8-0.8
		c0.3-0.3,0.5-0.5,0.8-0.8c0.2-0.3,0.5-0.6,0.7-0.9c0.2-0.3,0.4-0.6,0.6-1c0.2-0.3,0.3-0.7,0.5-1c0.1-0.3,0.3-0.7,0.4-1.1
		c0.1-0.4,0.2-0.7,0.3-1.1c0.1-0.4,0.1-0.7,0.2-1.1c0-0.4,0.1-0.8,0.1-1.1C636.7,450.5,636.7,450.2,636.7,449.8z"/>
	<path class="st0" d="M553.2,439.4c-6.3,0-11.4,5.1-11.4,11.4c0,6.3,5.1,11.4,11.4,11.4c0,0,0,0,0,0c6.3,0,11.4-5.1,11.4-11.4
		C564.6,444.5,559.5,439.4,553.2,439.4z"/>
	<path class="st0" d="M589.3,439.4c-6.3,0-11.4,5.1-11.4,11.4c0,6.3,5.1,11.4,11.4,11.4c0,0,0,0,0,0c6.3,0,11.4-5.1,11.4-11.4
		C600.7,444.6,595.6,439.5,589.3,439.4z"/>
</g>
<g>
	<polygon class="st1" points="951.8,-60.1 1108.1,-216.5 992.2,-332.4 795.6,-135.9 871.3,-60.2 	"/>
	<g>
		<g>
			<line class="st2" x1="1140.2" y1="-59.9" x2="1140.2" y2="-59.9"/>
			<line class="st3" x1="1086.4" y1="-59.9" x2="898.2" y2="-60.1"/>
			<line class="st2" x1="871.3" y1="-60.2" x2="871.3" y2="-60.2"/>
		</g>
	</g>
	<rect x="915.6" y="-296.2" transform="matrix(0.7071 0.7071 -0.7071 0.7071 135.2933 -770.4)" width="164" height="148.7"/>
</g>
</svg>
